<?xml version="1.0" encoding="UTF-8" standalone="no"?>
<svg
   data-name="Social Media Icons"
   id="Social_Media_Icons"
   viewBox="0 0 16 16"
   version="1.1"
   sodipodi:docname="telegram.svg"
   width="16"
   height="16"
   inkscape:version="1.3.2 (091e20e, 2023-11-25, custom)"
   inkscape:export-filename="..\..\SS14.Launcher\Assets\info-icons\telegram.png"
   inkscape:export-xdpi="96"
   inkscape:export-ydpi="96"
   xmlns:inkscape="http://www.inkscape.org/namespaces/inkscape"
   xmlns:sodipodi="http://sodipodi.sourceforge.net/DTD/sodipodi-0.dtd"
   xmlns="http://www.w3.org/2000/svg"
   xmlns:svg="http://www.w3.org/2000/svg">
  <sodipodi:namedview
     id="namedview1"
     pagecolor="#595959"
     bordercolor="#000000"
     borderopacity="0.25"
     inkscape:showpageshadow="2"
     inkscape:pageopacity="0.0"
     inkscape:pagecheckerboard="true"
     inkscape:deskcolor="#d1d1d1"
     inkscape:zoom="25.919883"
     inkscape:cx="9.4522032"
     inkscape:cy="7.7353745"
     inkscape:window-width="1350"
     inkscape:window-height="1237"
     inkscape:window-x="3401"
     inkscape:window-y="123"
     inkscape:window-maximized="0"
     inkscape:current-layer="Social_Media_Icons" />
  <defs
     id="defs1">
    <style
       id="style1">.cls-1{fill:#009eeb;}</style>
  </defs>
  <path
     class="cls-1"
     d="M 14.911994,1.3662598 0.41128188,6.9775927 a 0.18326038,0.18326038 0 0 0 -0.0250185,0.01188 c -0.11758686,0.06661 -0.93819309,0.568545 0.21891173,1.018565 l 0.0118838,0.0044 3.45286329,1.115512 a 0.19014047,0.19014047 0 0 0 0.1591801,-0.01939 l 8.5641387,-5.343323 a 0.18763862,0.18763862 0 0 1 0.0688,-0.02596 c 0.11915,-0.0197 0.462216,-0.05661 0.245181,0.218911 -0.245494,0.312731 -6.0951272,5.554729 -6.7443568,6.1360963 a 0.19702055,0.19702055 0 0 0 -0.064735,0.130409 l -0.2833343,3.377494 a 0.22141357,0.22141357 0 0 0 0.088503,0.177318 0.21515895,0.21515895 0 0 0 0.2555013,-0.01939 l 2.0515155,-1.833542 a 0.1904532,0.1904532 0 0 1 0.2386138,-0.0122 l 3.5792065,2.598795 0.01157,0.0078 c 0.08663,0.05348 1.022318,0.597941 1.292517,-0.617957 L 16.002799,2.1552707 c 0.0034,-0.03722 0.0369,-0.446267 -0.255502,-0.6880079 -0.307101,-0.252687 -0.741798,-0.125093 -0.807158,-0.111333 a 0.18763862,0.18763862 0 0 0 -0.02815,0.01032 z"
     id="Telegram"
     style="stroke-width:0.0312731;fill:#ffffff;fill-opacity:1" />
</svg>
