<?xml version="1.0" encoding="UTF-8" standalone="no"?>
<svg
   viewBox="0 0 20 20"
   version="1.1"
   id="svg1"
   sodipodi:docname="star_outline.svg"
   width="20"
   height="20"
   inkscape:version="1.4.2 (ebf0e940d0, 2025-05-08)"
   xmlns:inkscape="http://www.inkscape.org/namespaces/inkscape"
   xmlns:sodipodi="http://sodipodi.sourceforge.net/DTD/sodipodi-0.dtd"
   xmlns="http://www.w3.org/2000/svg"
   xmlns:svg="http://www.w3.org/2000/svg">
  <defs
     id="defs1" />
  <sodipodi:namedview
     id="namedview1"
     pagecolor="#505050"
     bordercolor="#ffffff"
     borderopacity="1"
     inkscape:showpageshadow="0"
     inkscape:pageopacity="0"
     inkscape:pagecheckerboard="1"
     inkscape:deskcolor="#505050"
     showgrid="true"
     inkscape:zoom="19.7"
     inkscape:cx="8.0456853"
     inkscape:cy="8.6548223"
     inkscape:window-width="1920"
     inkscape:window-height="1006"
     inkscape:window-x="0"
     inkscape:window-y="388"
     inkscape:window-maximized="1"
     inkscape:current-layer="svg1">
    <inkscape:grid
       id="grid1"
       units="px"
       originx="0"
       originy="0"
       spacingx="1"
       spacingy="1"
       empcolor="#0099e5"
       empopacity="0.30196078"
       color="#0099e5"
       opacity="0.14901961"
       empspacing="5"
       enabled="true"
       visible="true" />
  </sodipodi:namedview>
  <path
     sodipodi:type="star"
     style="fill:none;fill-opacity:1;fill-rule:evenodd;stroke:#ffffff;stroke-width:2;stroke-linecap:round;stroke-linejoin:round;paint-order:stroke fill markers"
     id="path2"
     inkscape:flatsided="false"
     sodipodi:sides="5"
     sodipodi:cx="10"
     sodipodi:cy="10"
     sodipodi:r1="8"
     sodipodi:r2="4.4000001"
     sodipodi:arg1="-1.5707963"
     sodipodi:arg2="-0.9424778"
     inkscape:rounded="0.08"
     inkscape:randomized="0"
     d="m 10,2 c 0.411088,0 2.253678,4.1986937 2.586255,4.4403251 0.332577,0.2416315 4.895164,0.6965713 5.022197,1.0875391 0.127033,0.3909679 -3.29677,3.4408428 -3.423803,3.8318108 -0.127033,0.390968 0.85021,4.87083 0.517633,5.112461 C 14.369705,16.713768 10.411088,14.4 10,14.4 9.5889121,14.4 5.630295,16.713767 5.2977178,16.472136 4.9651407,16.230504 5.9423844,11.750643 5.8153512,11.359675 5.6883181,10.968707 2.2645148,7.9188317 2.3915479,7.5278638 2.5185811,7.136896 7.0811677,6.6819566 7.4137448,6.4403252 7.746322,6.1986937 9.5889123,2 10,2 Z"
     transform="matrix(1.0000146,0,0,1.0000055,-1.4523154e-4,0.75199497)"
     inkscape:label="Star" />
</svg>
